{
	"asset":{
		"version":"2.0",
		"generator":"Created using the official Cinema 4D glTF Exporter 1.000x284978"
	},
	"textures":[{
		"sampler":0,
		"source":0
	},
	{
		"sampler":1,
		"source":1
	},
	{
		"sampler":2,
		"source":2
	}],
	"scenes":[{
		"nodes":[0]
	}],
	"nodes":[{
		"name":"VIC_NormalBoy_Can",
		"translation":[-0.08127035945653916,
		-1.2618694305419922,
		-1.5406105518341065],
		"rotation":[7.631298259980213e-9,
		-0.7788227796554565,
		-7.3229600161539569e-9,
		0.6272440552711487],
		"scale":[1.0,
		1.0,
		1.0],
		"children":[1,
		2,
		3,
		4]
	},
	{
		"name":"Can_Mid",
		"translation":[2.6645352591003758e-15,
		9.821938514709473,
		-4.996003610813204e-16],
		"rotation":[0.0,
		-0.9396926164627075,
		0.0,
		-0.3420201539993286],
		"scale":[5.0,
		5.0,
		5.0],
		"mesh":0
	},
	{
		"name":"Pull Tab",
		"translation":[3.3306690738754698e-15,
		15.684062957763672,
		8.881784197001253e-16],
		"rotation":[0.0,
		-0.9396926164627075,
		0.0,
		-0.3420201539993286],
		"scale":[4.5,
		5.0,
		4.5],
		"mesh":1
	},
	{
		"name":"Tab Fastener",
		"translation":[3.3306690738754698e-15,
		15.765981674194336,
		1.0547118733938988e-15],
		"rotation":[0.0,
		-0.9396926164627075,
		0.0,
		-0.3420201539993286],
		"scale":[5.0,
		5.0,
		5.0],
		"mesh":2
	},
	{
		"name":"Can_Top",
		"translation":[2.4424906541753445e-15,
		15.765981674194336,
		6.106226635438361e-16],
		"rotation":[0.0,
		-0.9396926164627075,
		0.0,
		-0.3420201539993286],
		"scale":[5.0,
		5.0,
		5.0],
		"mesh":3
	}],
	"samplers":[{
		"magFilter":9729,
		"minFilter":9729,
		"wrapS":10497,
		"wrapT":10497
	},
	{
		"magFilter":9729,
		"minFilter":9729,
		"wrapS":10497,
		"wrapT":10497
	},
	{
		"magFilter":9729,
		"minFilter":9729,
		"wrapS":10497,
		"wrapT":10497
	}],
	"meshes":[{
		"name":"Can_Mid",
		"primitives":[{
			"attributes":{
				"POSITION":1,
				"NORMAL":2,
				"TEXCOORD_0":3
			},
			"indices":0,
			"material":0
		}]
	},
	{
		"name":"Pull Tab",
		"primitives":[{
			"attributes":{
				"POSITION":5,
				"NORMAL":6,
				"TEXCOORD_0":7
			},
			"indices":4,
			"material":1
		}]
	},
	{
		"name":"Tab Fastener",
		"primitives":[{
			"attributes":{
				"POSITION":9,
				"NORMAL":10,
				"TEXCOORD_0":11
			},
			"indices":8,
			"material":2
		}]
	},
	{
		"name":"Can_Top",
		"primitives":[{
			"attributes":{
				"POSITION":13,
				"NORMAL":14,
				"TEXCOORD_0":15
			},
			"indices":12,
			"material":3
		}]
	}],
	"accessors":[{
		"bufferView":0,
		"type":"SCALAR",
		"componentType":5123,
		"count":1188,
		"byteOffset":0,
		"min":[0],
		"max":[259]
	},
	{
		"bufferView":1,
		"type":"VEC3",
		"componentType":5126,
		"count":260,
		"byteOffset":0,
		"min":[-1.012087106704712,
		-1.9660446643829346,
		-1.012087106704712],
		"max":[1.012087106704712,
		1.2906466722488404,
		1.012087106704712]
	},
	{
		"bufferView":1,
		"type":"VEC3",
		"componentType":5126,
		"count":260,
		"byteOffset":12,
		"min":[-1.0,
		-1.0,
		-1.0],
		"max":[1.0,
		0.2910231351852417,
		1.0]
	},
	{
		"bufferView":1,
		"type":"VEC2",
		"componentType":5126,
		"count":260,
		"byteOffset":24,
		"min":[0.0,
		0.0],
		"max":[1.0,
		1.0]
	},
	{
		"bufferView":2,
		"type":"SCALAR",
		"componentType":5123,
		"count":1920,
		"byteOffset":0,
		"min":[0],
		"max":[384]
	},
	{
		"bufferView":3,
		"type":"VEC3",
		"componentType":5126,
		"count":385,
		"byteOffset":0,
		"min":[-0.27293065190315249,
		-2.204911888514143e-15,
		-0.575680673122406],
		"max":[0.27293065190315249,
		0.07372667640447617,
		0.24862530827522279]
	},
	{
		"bufferView":3,
		"type":"VEC3",
		"componentType":5126,
		"count":385,
		"byteOffset":12,
		"min":[-0.9999026656150818,
		-1.0,
		-1.0],
		"max":[0.9997547268867493,
		1.0,
		1.0]
	},
	{
		"bufferView":3,
		"type":"VEC2",
		"componentType":5126,
		"count":385,
		"byteOffset":24,
		"min":[0.000030517578125,
		0.000030517578125],
		"max":[1.0,
		1.0]
	},
	{
		"bufferView":4,
		"type":"SCALAR",
		"componentType":5123,
		"count":144,
		"byteOffset":0,
		"min":[0],
		"max":[37]
	},
	{
		"bufferView":5,
		"type":"VEC3",
		"componentType":5126,
		"count":38,
		"byteOffset":0,
		"min":[-0.07552888244390488,
		-2.4532738071103654e-15,
		-0.06540993601083756],
		"max":[0.07552888244390488,
		0.016383705660700799,
		0.06540993601083756]
	},
	{
		"bufferView":5,
		"type":"VEC3",
		"componentType":5126,
		"count":38,
		"byteOffset":12,
		"min":[-1.0,
		-1.0,
		-0.8660253882408142],
		"max":[1.0,
		1.0,
		0.8660253882408142]
	},
	{
		"bufferView":5,
		"type":"VEC2",
		"componentType":5126,
		"count":38,
		"byteOffset":24,
		"min":[0.000030517578125,
		0.000030517578125],
		"max":[1.0,
		1.0]
	},
	{
		"bufferView":6,
		"type":"SCALAR",
		"componentType":5123,
		"count":1584,
		"byteOffset":0,
		"min":[0],
		"max":[380]
	},
	{
		"bufferView":7,
		"type":"VEC3",
		"componentType":5126,
		"count":381,
		"byteOffset":0,
		"min":[-0.834594190120697,
		-0.06553482264280319,
		-0.834594190120697],
		"max":[0.834594190120697,
		0.11468594521284104,
		0.834594190120697]
	},
	{
		"bufferView":7,
		"type":"VEC3",
		"componentType":5126,
		"count":381,
		"byteOffset":12,
		"min":[-1.0,
		-1.0,
		-1.0],
		"max":[1.0,
		1.0,
		1.0]
	},
	{
		"bufferView":7,
		"type":"VEC2",
		"componentType":5126,
		"count":381,
		"byteOffset":24,
		"min":[0.000030517578125,
		0.000030517578125],
		"max":[1.0,
		1.0]
	}],
	"bufferViews":[{
		"buffer":0,
		"byteOffset":0,
		"byteLength":2376,
		"target":34963
	},
	{
		"buffer":0,
		"byteOffset":2376,
		"byteLength":8320,
		"target":34962,
		"byteStride":32
	},
	{
		"buffer":1,
		"byteOffset":0,
		"byteLength":3840,
		"target":34963
	},
	{
		"buffer":1,
		"byteOffset":3840,
		"byteLength":12320,
		"target":34962,
		"byteStride":32
	},
	{
		"buffer":2,
		"byteOffset":0,
		"byteLength":288,
		"target":34963
	},
	{
		"buffer":2,
		"byteOffset":288,
		"byteLength":1216,
		"target":34962,
		"byteStride":32
	},
	{
		"buffer":3,
		"byteOffset":0,
		"byteLength":3168,
		"target":34963
	},
	{
		"buffer":3,
		"byteOffset":3168,
		"byteLength":12192,
		"target":34962,
		"byteStride":32
	}],
	"buffers":[{
		"uri":"data:application/octet-stream;base64,",
		"byteLength":10696
	},
	{
		"uri":"data:application/octet-stream;base64,",
		"byteLength":16160
	},
	{
		"uri":"data:application/octet-stream;base64,",
		"byteLength":1504
	},
	{
		"uri":"data:application/octet-stream;base64,",
		"byteLength":15360
	}],
	"images":[{
		"uri":"data:image/jpeg;base64,"
	},
	{
		"uri":"data:image/jpeg;base64,"
	},
	{
		"uri":"data:image/jpeg;base64,"
	}],
	"materials":[{
		"pbrMetallicRoughness":{
			"baseColorTexture":{
				"index":0
			},
			"baseColorFactor":[0.8,
			0.8,
			0.8,
			1.0],
			"metallicFactor":0.0,
			"roughnessFactor":0.5
		},
		"emissiveFactor":[0.0,
		0.0,
		0.0],
		"alphaMode":"OPAQUE",
		"doubleSided":false,
		"name":"Mat"
	},
	{
		"pbrMetallicRoughness":{
			"baseColorTexture":{
				"index":1
			},
			"baseColorFactor":[0.8,
			0.8,
			0.8,
			1.0],
			"metallicFactor":0.0,
			"roughnessFactor":0.5
		},
		"emissiveFactor":[0.0,
		0.0,
		0.0],
		"alphaMode":"OPAQUE",
		"doubleSided":false,
		"name":"Mat.2"
	},
	{
		"pbrMetallicRoughness":{
			"baseColorFactor":[1.0,
			1.0,
			1.0,
			1.0],
			"metallicFactor":1.0,
			"roughnessFactor":1.0
		},
		"emissiveFactor":[0.0,
		0.0,
		0.0],
		"alphaMode":"OPAQUE",
		"doubleSided":false,
		"name":""
	},
	{
		"pbrMetallicRoughness":{
			"baseColorTexture":{
				"index":2
			},
			"baseColorFactor":[0.8,
			0.8,
			0.8,
			1.0],
			"metallicFactor":0.0,
			"roughnessFactor":0.5
		},
		"emissiveFactor":[0.0,
		0.0,
		0.0],
		"alphaMode":"OPAQUE",
		"doubleSided":false,
		"name":"Mat.3"
	}]
}